<svg width="564" height="265" viewBox="0 0 564 265" fill="none" xmlns="http://www.w3.org/2000/svg">
<path d="M393.3 132.618C393.482 194.4 343.177 245.144 282.262 245C221.585 244.859 171.591 194.143 171.698 132.281C171.805 70.6679 221.771 19.9118 282.693 20.0001C343.497 20.0884 393.609 70.8847 393.3 132.618ZM181.037 132.402C180.835 189.084 226.395 235.419 282.282 235.552C338.323 235.684 383.95 189.381 384.049 132.695C384.147 75.8154 338.521 29.5201 282.669 29.4439C226.763 29.3636 180.946 75.5825 181.037 132.402Z" fill="#FCEE21" fill-opacity="0.15"/>
<path d="M282.543 38.1943C332.365 37.7933 375.515 79.9495 375.385 132.566C375.251 185.675 332.716 226.849 282.445 226.808C231.36 226.768 189.469 184.083 189.615 132.201C189.765 80.0939 232.055 37.9136 282.543 38.1943ZM286.824 211.111C286.828 211.111 286.836 211.111 286.84 211.111C286.84 212.579 286.907 214.055 286.821 215.518C286.742 216.866 287.203 217.179 288.529 217.091C299.024 216.413 308.944 213.625 318.413 209.025C319.782 208.359 319.743 207.718 319.068 206.579C317.644 204.18 316.291 201.734 314.957 199.283C313.994 197.514 314.294 195.766 315.387 194.19C316.496 192.585 318.177 192.301 319.964 192.537C321.641 192.758 322.58 194.021 323.373 195.329C324.754 197.599 326.048 199.925 327.327 202.259C327.859 203.226 328.36 203.434 329.331 202.748C337.976 196.604 345.398 189.236 351.269 180.289C351.983 179.202 351.699 178.684 350.681 178.123C348.317 176.815 345.95 175.5 343.669 174.048C341.069 172.396 340.363 169.676 341.76 167.346C343.121 165.08 345.946 164.483 348.503 165.95C350.732 167.23 352.973 168.493 355.159 169.849C356.355 170.591 357.057 170.37 357.574 169.063C358.359 167.081 359.251 165.148 360.028 163.163C363.035 155.479 364.696 147.477 365.442 139.259C365.588 137.639 365.106 136.961 363.402 137.033C360.715 137.15 358.016 137.106 355.325 137.037C352.977 136.981 351.375 135.489 351.001 133.171C350.547 130.368 352.504 127.993 355.704 127.769C358.253 127.592 360.829 127.624 363.386 127.713C365.071 127.769 365.647 127.067 365.426 125.455C365.158 123.473 364.941 121.484 364.672 119.503C363.556 111.233 361.015 103.408 357.578 95.8518C356.935 94.4361 356.335 94.3077 355.076 95.1259C352.973 96.4895 350.776 97.7008 348.586 98.912C345.717 100.496 343.089 99.8946 341.752 97.416C340.446 95.0016 341.353 92.3264 344.088 90.6821C346.12 89.4548 348.156 88.2235 350.255 87.1246C351.758 86.3385 352.046 85.6407 350.981 84.1006C345.027 75.4776 337.747 68.2504 329.276 62.2103C328.238 61.4683 327.768 61.5886 327.181 62.6916C325.871 65.1581 324.521 67.6086 323.038 69.9709C321.483 72.4495 319.238 73.1233 316.95 72.0204C314.46 70.8212 313.635 68.0338 315.075 65.1822C316.152 63.0485 317.411 61.0031 318.603 58.9295C319.897 56.6796 319.917 56.6595 317.53 55.5004C308.419 51.0806 298.78 48.6823 288.762 47.6996C287.286 47.5553 286.765 48.0847 286.813 49.5887C286.899 52.1916 286.856 54.7985 286.828 57.4015C286.797 60.3974 285.041 62.4068 282.417 62.5071C279.778 62.6113 277.82 60.7544 277.607 57.7664C277.473 55.9055 277.556 54.0285 277.556 52.1595C277.552 47.7197 277.544 47.6234 273.232 48.0686C263.873 49.0352 254.944 51.59 246.464 55.7691C245.036 56.475 244.847 57.209 245.644 58.5525C247.036 60.8948 248.354 63.2851 249.617 65.6996C250.595 67.5766 250.252 69.626 248.875 71.0658C247.482 72.5177 245.478 72.9549 243.825 72.1006C242.495 71.4148 241.568 70.2918 240.842 68.9923C239.638 66.8466 238.407 64.7169 237.259 62.5391C236.77 61.6087 236.32 61.4683 235.44 62.0779C226.59 68.1982 219.216 75.8105 213.112 84.7262C212.453 85.6888 212.603 86.158 213.597 86.7155C216.178 88.1714 218.801 89.5912 221.212 91.3077C223.643 93.0363 224.006 95.5831 222.506 97.7689C221.003 99.9588 218.596 100.432 216.063 98.9922C214.059 97.8532 212.07 96.674 210.081 95.5069C207.829 94.1874 207.757 94.1834 206.625 96.6018C202.344 105.746 200.036 115.412 199.097 125.471C198.931 127.227 199.302 127.725 200.971 127.717C203.792 127.705 206.625 127.444 209.43 127.881C212.311 128.33 213.7 130.147 213.483 133.015C213.305 135.377 211.391 137.021 208.716 137.054C206.021 137.086 203.327 137.114 200.636 137.046C199.191 137.009 198.805 137.539 199.061 138.971C199.381 140.735 199.448 142.548 199.689 144.333C200.845 152.924 203.216 161.15 206.897 168.987C207.513 170.298 208.093 170.667 209.419 169.817C211.581 168.425 213.834 167.178 216.091 165.942C218.782 164.471 221.453 165.092 222.786 167.414C224.112 169.72 223.288 172.476 220.711 174.08C218.64 175.372 216.56 176.655 214.402 177.79C212.816 178.624 212.54 179.35 213.644 180.954C219.519 189.477 226.756 196.56 235.089 202.556C236.312 203.438 236.865 203.141 237.5 201.95C238.782 199.544 240.072 197.133 241.52 194.831C243.107 192.313 245.853 191.747 248.204 193.259C250.232 194.567 250.773 197.398 249.416 199.837C248.125 202.163 246.839 204.493 245.458 206.763C244.78 207.878 244.898 208.436 246.113 209.025C255.405 213.505 265.123 216.292 275.406 217.05C277.158 217.179 277.686 216.742 277.655 214.933C277.6 211.941 277.3 208.917 277.915 205.945C278.393 203.639 280.436 202.175 282.701 202.408C285.112 202.652 286.702 204.285 286.809 206.711C286.876 208.171 286.824 209.639 286.824 211.111Z" fill="#FCEE21" fill-opacity="0.15"/>
<path d="M287.256 106.48C287.256 113.764 287.288 121.053 287.232 128.337C287.22 129.923 287.677 131.103 288.807 132.232C295.333 138.761 301.811 145.346 308.28 151.935C310.494 154.192 310.847 156.023 309.617 158.192C308.078 160.906 305.143 161.528 302.723 159.549C301.549 158.585 300.521 157.437 299.446 156.352C294.21 151.068 288.954 145.8 283.773 140.459C282.655 139.307 281.929 139.214 280.699 140.343C268.362 151.638 255.978 162.878 243.601 174.129C242.962 174.711 242.32 175.285 241.637 175.815C239.305 177.626 236.806 177.381 234.965 175.189C233.355 173.27 233.648 170.495 235.747 168.559C239.309 165.279 242.911 162.034 246.501 158.782C255.105 150.98 263.713 143.186 272.321 135.384C272.666 135.071 272.956 134.677 273.344 134.444C277.224 132.115 277.966 128.642 277.875 124.265C277.605 111.371 277.771 98.4696 277.791 85.5679C277.791 84.3713 277.863 83.1506 278.101 81.9861C278.533 79.882 280.473 78.3963 282.555 78.4043C284.654 78.4123 286.51 79.89 286.947 82.0463C287.169 83.1506 287.244 84.299 287.248 85.4313C287.268 92.4464 287.256 99.4614 287.256 106.48Z" fill="#FCEE21" fill-opacity="0.15"/>
<g clip-path="url(#clip0_116293_463)">
<path d="M489.215 163.115L542.019 161.122L532.689 112.714L472.67 109.296L489.215 163.115Z" fill="#FCD821"/>
<path d="M143.997 96.9974L181.256 126.744L220.611 177.832L144.34 181.969L143.997 96.9974Z" fill="#FCD821"/>
<path d="M208.098 94.279L245.244 124.063L243.403 176.639L205.764 139.48L208.098 94.279Z" fill="#FCD821"/>
<path d="M392.767 83.3739L430.026 113.121L464.419 164.477L391.369 168.439L392.767 83.3739Z" fill="#FCD821"/>
<path d="M144.016 96.9662L115.482 98.5285V99.3409L67.8577 101.947V103.822L34.4 105.653V133.468L41.9578 133.056V183.825L71.596 182.207V154.416L72.1889 154.385V186.006L145.202 182.013V155.503L144.022 155.566V138.149L151.736 137.724V110.89L144.022 111.315V96.9662H144.016Z" fill="#FCEE21"/>
<path d="M342.628 134.268C342.946 134.268 343.27 134.262 343.607 134.243C347.926 134.006 351.577 132.262 354.161 129.2C356.564 126.35 357.831 122.832 357.831 119.02V113.971C357.831 110.046 356.489 106.528 353.949 103.79C352.026 101.722 348.556 99.3159 342.89 99.6284C338.571 99.8659 334.92 101.609 332.336 104.672C329.934 107.521 328.667 111.04 328.667 114.852V119.901C328.667 123.832 330.008 127.35 332.548 130.081C334.352 132.025 337.541 134.268 342.628 134.268ZM341.766 114.845C341.766 113.996 341.997 113.546 342.347 113.133C342.447 113.014 342.646 112.777 343.601 112.727C344.019 112.702 344.281 112.739 344.388 112.771C344.531 112.933 344.718 113.202 344.718 113.971V119.02C344.718 119.87 344.487 120.32 344.138 120.732C344.038 120.851 343.838 121.088 342.883 121.138C342.434 121.163 342.191 121.12 342.097 121.095C341.954 120.932 341.766 120.67 341.766 119.895V114.845Z" fill="#FCEE21"/>
<path d="M364.246 92.5479C364.134 92.4542 364.021 92.3604 363.909 92.2667C361.101 89.942 357.805 88.2234 354.123 87.1548C350.591 86.1299 346.815 85.7174 342.89 85.9362C338.989 86.1486 335.245 86.961 331.762 88.3546C328.18 89.7857 324.991 91.798 322.276 94.3415C319.53 96.9162 317.32 100.028 315.704 103.59C315.536 103.959 315.386 104.328 315.236 104.703V87.6047L286.702 89.1671V89.9795L242.816 92.3792V91.5668L214.283 93.1291V138.218C212.298 134.781 210.538 131.337 209.028 127.956L208.965 127.819C208.691 127.244 208.485 126.444 208.366 125.507C208.191 124.151 208.104 122.801 208.104 121.507V94.279L178.466 95.8976V122.401C178.466 123.688 178.378 125.051 178.204 126.444C178.079 127.457 177.854 128.313 177.548 128.994L177.492 129.119C175.664 133.418 173.355 137.987 170.64 142.705C167.881 147.492 164.792 152.348 161.453 157.134L157.815 162.353L179.602 178.582L183.509 173.289C186.236 169.596 188.988 165.721 191.678 161.771C192.29 160.878 192.882 159.984 193.463 159.103C193.925 159.753 194.393 160.409 194.873 161.065C197.519 164.69 200.284 168.258 203.086 171.677L207.561 177.132L214.276 170.739V178.232L242.81 176.67V148.71L243.403 150.023V176.632L316.416 172.639V168.808L364.24 166.196V170.027L392.773 168.464V83.3615L364.24 84.9238V92.5479H364.246Z" fill="#FCEE21"/>
<path d="M535.466 75.5623V79.5556L529.444 79.8868V74.0125L500.118 75.6186V81.4867L489.215 82.0803V78.087L460.681 79.6494V80.0556L439.225 81.2304L410.691 82.7928V131.469L416.676 131.144V167.083L489.215 163.115V125.313L491.462 128.488V147.754L535.466 145.348V161.078L564 159.515V74L535.466 75.5623Z" fill="#FCEE21"/>
<path d="M65.0368 176.964L48.5046 177.87V127.094L40.9468 127.507V112.839L65.0368 111.521V176.964Z" fill="#CA4491"/>
<path d="M115.894 146.392L74.4044 148.66V109.134L115.894 106.865V146.392ZM138.642 176.77L78.7356 180.044V153.229L94.1632 152.385V165.833L138.642 163.403V176.77ZM100.467 133.787V121.157L89.8383 121.738V134.368L100.467 133.787ZM137.463 156.46L122.035 157.303V105.715L137.463 104.872V119.214L145.177 118.789V132.481L137.463 132.906V156.46Z" fill="#662D91"/>
<path d="M208.154 168.483C205.427 165.152 202.762 161.715 200.166 158.166C197.569 154.616 195.273 151.154 193.276 147.786C191.279 151.373 188.944 155.128 186.267 159.047C183.59 162.971 180.912 166.74 178.235 170.364L166.82 161.859C170.284 156.891 173.448 151.923 176.307 146.954C179.165 141.992 181.568 137.224 183.509 132.662C184.083 131.381 184.482 129.906 184.688 128.238C184.894 126.569 185 124.951 185 123.369V103.084L201.532 102.178V122.47C201.532 124.044 201.639 125.657 201.844 127.3C202.057 128.944 202.45 130.375 203.024 131.594C204.965 135.943 207.262 140.311 209.914 144.705C212.56 149.098 215.543 153.622 218.851 158.272L208.154 168.483ZM236.263 171.427L220.836 172.27V100.31L236.263 99.4659V171.427Z" fill="#662D91"/>
<path d="M285.854 115.258C285.854 119.007 285.042 122.151 283.414 124.682C281.785 127.213 279.213 129.45 275.7 131.381C271.344 133.737 266.894 136.062 262.357 138.343C257.819 140.63 253.001 142.861 247.909 145.042L242.398 132.793C247.066 130.531 251.647 128.213 256.134 125.85C260.622 123.488 264.678 121.226 268.298 119.076C269.034 118.657 269.571 118.108 269.914 117.439C270.258 116.77 270.426 116.027 270.426 115.208V111.946L245.631 113.302V99.7721L285.86 97.5724V115.258H285.854ZM309.869 167.402L249.962 170.677V145.904L265.39 145.061V156.472L309.869 154.041V167.402ZM308.683 147.092L293.255 147.935V96.3537L308.683 95.5101V112.708L316.397 112.289V125.982L308.683 126.4V147.092Z" fill="#662D91"/>
<path d="M386.227 163.228L370.799 164.071V153.316L364.109 160.609L319.711 163.04V149.348L370.805 146.554V92.1105L386.233 91.2668V163.228H386.227ZM366.705 119.145C366.705 122.626 366.075 125.757 364.814 128.538C363.553 131.325 361.862 133.712 359.74 135.699C357.612 137.693 355.134 139.249 352.301 140.386C349.468 141.517 346.447 142.174 343.245 142.349C340.044 142.524 337.023 142.199 334.19 141.374C331.356 140.549 328.879 139.261 326.751 137.505C324.622 135.749 322.931 133.543 321.67 130.9C320.41 128.25 319.779 125.188 319.779 121.713V116.664C319.779 113.189 320.41 110.058 321.67 107.271C322.931 104.484 324.622 102.097 326.751 100.11C328.879 98.1161 331.356 96.56 334.19 95.4226C337.023 94.2915 340.044 93.6353 343.245 93.4603C346.447 93.2853 349.461 93.6103 352.301 94.429C355.134 95.2539 357.612 96.5412 359.74 98.3035C361.868 100.06 363.56 102.266 364.814 104.915C366.075 107.565 366.705 110.627 366.705 114.102V119.145ZM351.277 114.939C351.277 112.658 350.566 110.752 349.149 109.227C347.733 107.702 345.767 107.009 343.245 107.146C340.724 107.284 338.758 108.196 337.341 109.871C335.925 111.552 335.213 113.533 335.213 115.814V120.87C335.213 123.151 335.919 125.057 337.341 126.582C338.758 128.106 340.724 128.8 343.245 128.663C345.767 128.525 347.733 127.619 349.149 125.938C350.566 124.257 351.277 122.276 351.277 119.995V114.939Z" fill="#662D91"/>
<path d="M423.229 161.122L482.662 157.872V124.376L467.234 125.219V130.844L440.236 132.318L423.229 138.124V161.122ZM467.234 141.767V146.986L438.657 148.548V143.33L467.234 141.767Z" fill="#CA4491"/>
<path d="M482.662 122.013V117.839L468.102 122.813L482.662 122.013Z" fill="#CA4491"/>
<path d="M438.657 126.782L423.229 127.625V138.124L440.236 132.318L438.657 132.406V126.782Z" fill="#662D91"/>
<path d="M467.234 86.8361V97.5911L458.734 98.0536V87.711L443.306 88.5546V94.9102L432.678 95.4914V89.1358L417.25 89.9795V125.513L458.74 123.245V111.427L467.24 110.965V122.863L468.108 122.813L482.668 117.845V85.9924L467.234 86.8361ZM443.3 111.94L432.672 112.521V106.653L443.3 106.071V111.94Z" fill="#662D91"/>
<path d="M498.015 141.792L542.019 139.386V155.116L557.447 154.272V125.501L498.015 128.756V141.792Z" fill="#CA4491"/>
<path d="M537.844 99.3534V99.0097L536.64 99.4222L537.844 99.3534Z" fill="#662D91"/>
<path d="M497.066 126.032C500.58 124.044 503.806 122.12 506.752 120.245C509.691 118.37 512.469 116.414 515.096 114.37C517.773 116.07 520.501 117.664 523.284 119.139C526.068 120.62 529.007 122.113 532.103 123.626L540.21 112.752C537.582 111.321 534.88 109.727 532.103 107.977C529.537 106.365 527.26 104.815 525.231 103.309L489.602 115.47L497.066 126.032Z" fill="#CA4491"/>
<path d="M522.891 87.786V81.9179L506.671 82.8053V88.6734L491.48 89.5045V101.891L506.596 101.066C506.49 101.834 506.24 102.509 505.847 103.103C505.454 103.697 504.886 104.309 504.156 104.947C501.896 106.809 499.55 108.552 497.11 110.183C494.669 111.815 492.086 113.458 489.358 115.133L489.602 115.477L525.231 103.315C525.057 103.184 524.876 103.053 524.701 102.928C524.177 102.578 523.783 102.178 523.521 101.728C523.259 101.284 523.072 100.76 522.972 100.172L536.64 99.4222L537.85 99.0097V86.9673L522.891 87.786Z" fill="#662D91"/>
<path d="M542.019 97.5849V123.901L557.447 123.057V92.3167L542.019 97.5849Z" fill="#CA4491"/>
<path d="M557.447 81.9054L542.019 82.749V97.5849L557.447 92.3167V81.9054Z" fill="#662D91"/>
<path d="M0 132.906L34.5249 181.663L9.13674 126.182L0 132.906Z" fill="#FCEE21"/>
<path d="M0.0499268 166.902L30.0127 184.419L2.56503 160.465L0.0499268 166.902Z" fill="#FCEE21"/>
</g>
<defs>
<clipPath id="clip0_116293_463">
<rect width="564" height="112" fill="white" transform="translate(0 74)"/>
</clipPath>
</defs>
</svg>
